<?xml version="1.0" standalone="no"?>
<!DOCTYPE svg PUBLIC "-//W3C//DTD SVG 20010904//EN"
 "http://www.w3.org/TR/2001/REC-SVG-20010904/DTD/svg10.dtd">
<svg version="1.0" xmlns="http://www.w3.org/2000/svg"
 width="700.000000pt" height="700.000000pt" viewBox="0 0 700.000000 700.000000"
 preserveAspectRatio="xMidYMid meet">
<metadata>
Created by potrace 1.11, written by Peter Selinger 2001-2013
</metadata>
<g transform="translate(0.000000,700.000000) scale(0.100000,-0.100000)"
fill="#000000" stroke="none">
<path d="M5120 6053 c-258 -52 -452 -193 -583 -420 -21 -37 -36 -72 -33 -79 3
-7 22 -20 43 -30 21 -10 40 -21 43 -24 3 -4 12 -9 20 -12 41 -15 236 -172 326
-262 211 -211 375 -484 475 -788 17 -54 37 -98 43 -98 6 0 29 5 51 10 93 22
350 32 477 17 239 -27 473 -129 637 -277 18 -16 35 -30 37 -30 6 0 73 68 106
110 111 138 167 308 166 502 -2 354 -158 596 -416 645 -48 10 -185 9 -242 0
-87 -15 -82 -17 -107 53 -127 353 -381 605 -685 681 -93 23 -249 24 -358 2z"/>
<path d="M3238 5725 c-2 -2 -46 -5 -98 -9 -52 -3 -104 -8 -115 -10 -11 -2 -42
-7 -70 -10 -71 -10 -225 -50 -325 -84 -250 -86 -516 -258 -694 -450 -81 -88
-102 -114 -165 -202 -80 -113 -139 -212 -181 -307 -17 -37 -35 -76 -41 -86
-17 -32 -87 -239 -113 -337 -24 -91 -29 -112 -42 -190 -4 -19 -7 -39 -8 -45
-8 -32 -24 -168 -32 -254 -2 -30 -6 -56 -7 -57 -1 -1 -41 -4 -89 -8 -314 -20
-615 -160 -825 -381 -89 -94 -87 -91 -140 -171 -94 -138 -158 -296 -195 -478
-23 -111 -32 -368 -18 -466 5 -30 11 -73 14 -95 19 -148 125 -447 197 -555 9
-14 38 -58 65 -99 52 -78 190 -225 264 -282 97 -75 223 -142 330 -176 48 -15
60 -17 155 -34 60 -11 4271 -15 4360 -5 98 12 136 19 219 43 102 29 133 41
231 90 64 32 163 90 175 103 3 3 30 24 61 47 64 47 198 179 237 232 14 20 31
41 37 46 6 6 37 51 70 100 112 171 215 423 251 610 44 238 49 425 19 705 -8
71 -33 206 -46 246 -5 17 -12 42 -14 55 -10 52 -59 179 -106 276 -54 110 -139
232 -217 311 -255 256 -636 343 -1085 247 -77 -16 -110 -19 -112 -11 -28 92
-75 228 -100 291 -218 540 -613 997 -1053 1219 -144 72 -323 135 -437 151 -16
3 -41 7 -55 10 -40 9 -296 25 -302 20z m-815 -2220 c71 -8 197 -40 259 -67
l46 -20 -1 -164 c-1 -90 -6 -164 -10 -164 -5 0 -21 8 -35 19 -138 97 -365 142
-535 106 -203 -42 -371 -194 -451 -406 -13 -35 -27 -82 -31 -104 -3 -22 -10
-61 -14 -87 -12 -71 -4 -275 13 -354 68 -315 285 -494 599 -496 156 0 285 38
409 122 l56 39 0 -158 -1 -159 -37 -21 c-59 -33 -166 -70 -249 -87 -99 -20
-309 -25 -408 -9 -387 63 -672 375 -720 790 -9 76 -9 273 -1 345 39 319 188
574 425 730 76 50 197 105 253 115 18 3 36 8 40 10 13 8 67 16 150 22 47 3 86
6 87 7 3 3 102 -3 156 -9z m1702 -6 c251 -42 452 -179 576 -394 45 -77 90
-194 104 -266 3 -13 10 -49 17 -79 13 -63 17 -353 5 -450 -35 -303 -213 -580
-457 -713 -101 -56 -203 -89 -310 -104 -68 -9 -257 -9 -325 0 -187 24 -356
107 -487 238 -84 84 -134 155 -184 263 -42 92 -60 156 -83 291 -12 67 -12 326
0 395 4 30 11 70 14 89 3 19 19 75 36 125 82 247 237 425 460 530 171 81 419
110 634 75z m1423 -1019 c143 -62 186 -225 101 -390 -36 -71 -73 -115 -244
-286 -77 -78 -141 -149 -143 -158 -3 -14 19 -16 206 -16 l209 0 -1 -37 -1 -37
-308 0 -307 -1 0 51 0 52 79 71 c43 39 98 88 122 108 24 21 92 86 151 144 125
123 158 180 158 269 0 109 -54 154 -185 154 -66 0 -91 -5 -142 -28 -34 -16
-70 -37 -79 -47 -27 -30 -34 -23 -34 39 0 54 2 58 33 76 43 25 104 47 147 53
19 3 37 7 39 8 13 13 153 -5 199 -25z"/>
<path d="M3810 3223 c-49 -8 -155 -45 -199 -71 -123 -72 -226 -223 -272 -397
-31 -118 -35 -356 -8 -484 59 -282 239 -466 484 -497 367 -47 611 141 672 518
10 57 9 361 0 415 -50 278 -185 445 -408 502 -68 18 -199 24 -269 14z"/>
</g>
</svg>
